<svg width="171" height="42" viewBox="0 0 171 42" fill="none" xmlns="http://www.w3.org/2000/svg">
<path d="M35.548 33.443C34.5039 33.3597 33.9831 33.8112 33.9831 34.795V34.9733H35.548V35.9699H33.9831V40.9031H32.9519V35.9699H32.0027V34.9733H32.9519V34.795C32.9519 33.1942 33.8767 32.3399 35.5493 32.4464V33.443H35.548Z" fill="white"/>
<path d="M40.92 34.9721H41.9512V40.9019H40.92V39.8822C40.4095 40.6646 39.6629 41.0558 38.6791 41.0558C37.8492 41.0558 37.1374 40.7595 36.5563 40.1541C35.9753 39.5487 35.679 38.8022 35.679 37.9364C35.679 37.0706 35.9753 36.3356 36.5563 35.7302C37.1374 35.1247 37.8492 34.8169 38.6791 34.8169C39.6629 34.8169 40.4107 35.2081 40.92 35.9905V34.9708V34.9721ZM40.3145 39.4551C40.7173 39.0395 40.9187 38.5418 40.9187 37.9376C40.9187 37.3335 40.7173 36.8345 40.3145 36.4318C39.9118 36.0162 39.4128 35.8148 38.8087 35.8148C38.2045 35.8148 37.7171 36.0162 37.3144 36.4318C36.9116 36.8345 36.7102 37.3335 36.7102 37.9376C36.7102 38.5418 36.9116 39.0407 37.3144 39.4551C37.7171 39.8578 38.2161 40.0592 38.8087 40.0592C39.4013 40.0592 39.9118 39.8578 40.3145 39.4551Z" fill="white"/>
<path d="M44.074 40.1671C43.4814 39.563 43.1851 38.8267 43.1851 37.9378C43.1851 37.0489 43.4814 36.3127 44.074 35.7201C44.6665 35.1159 45.4144 34.8184 46.3032 34.8184C47.4769 34.8184 48.462 35.4238 48.9238 36.3717L48.0579 36.8694C47.7617 36.2408 47.0972 35.8253 46.3032 35.8253C45.7106 35.8253 45.2117 36.0266 44.8089 36.4307C44.4177 36.8334 44.2163 37.3324 44.2163 37.9365C44.2163 38.5407 44.4177 39.0281 44.8089 39.4309C45.2117 39.8336 45.7106 40.035 46.3032 40.035C47.0972 40.035 47.7617 39.6322 48.0939 39.0037L48.9712 39.513C48.4607 40.4493 47.4538 41.0547 46.3032 41.0547C45.4144 41.0547 44.6665 40.7584 44.074 40.1658V40.1671Z" fill="white"/>
<path d="M49.8127 33.2057C49.8127 32.826 50.1206 32.5054 50.5131 32.5054C50.9056 32.5054 51.2006 32.826 51.2006 33.2057C51.2006 33.5854 50.8928 33.8932 50.5131 33.8932C50.1334 33.8932 49.8127 33.5854 49.8127 33.2057ZM49.991 40.9018V34.972H51.0223V40.9018H49.991Z" fill="white"/>
<path d="M52.6001 40.9019V32.2451H53.6314V40.9019H52.6001Z" fill="white"/>
<path d="M55.0308 33.2057C55.0308 32.826 55.3386 32.5054 55.7298 32.5054C56.121 32.5054 56.4173 32.826 56.4173 33.2057C56.4173 33.5854 56.1095 33.8932 55.7298 33.8932C55.3501 33.8932 55.0308 33.5854 55.0308 33.2057ZM55.2091 40.9018V34.972H56.2403V40.9018H55.2091Z" fill="white"/>
<path d="M61.0426 35.9687H59.4649V39.1818C59.4649 40.0951 59.987 40.0233 61.0426 39.9758V40.9006C59.2405 41.1379 58.4337 40.6518 58.4337 39.1806V35.9675H57.26V34.9708H58.4337V33.6189L59.4649 33.311V34.9708H61.0426V35.9675V35.9687Z" fill="white"/>
<path d="M66.8763 34.9721H67.9075V40.9019H66.8763V39.8822C66.3658 40.6646 65.6192 41.0558 64.6354 41.0558C63.8055 41.0558 63.0937 40.7595 62.5126 40.1541C61.9316 39.5487 61.6353 38.8022 61.6353 37.9364C61.6353 37.0706 61.9316 36.3356 62.5126 35.7302C63.0937 35.1247 63.8055 34.8169 64.6354 34.8169C65.6192 34.8169 66.367 35.2081 66.8763 35.9905V34.9708V34.9721ZM66.2721 39.4551C66.6749 39.0395 66.8763 38.5418 66.8763 37.9376C66.8763 37.3335 66.6749 36.8345 66.2721 36.4318C65.8694 36.0162 65.3704 35.8148 64.7663 35.8148C64.1621 35.8148 63.676 36.0162 63.272 36.4318C62.8692 36.8345 62.6665 37.3335 62.6665 37.9376C62.6665 38.5418 62.8679 39.0407 63.272 39.4551C63.6747 39.8578 64.1737 40.0592 64.7663 40.0592C65.3589 40.0592 65.8694 39.8578 66.2721 39.4551Z" fill="white"/>
<path d="M74.7274 37.2619V40.9021H73.6961V37.3209C73.6961 36.3601 73.1382 35.8035 72.2262 35.8035C71.1949 35.8035 70.5061 36.432 70.5061 37.7595V40.9021H69.4749V34.9723H70.5061V35.8265C70.9217 35.1506 71.5618 34.8184 72.4276 34.8184C73.8154 34.8184 74.7287 35.7547 74.7287 37.2619H74.7274Z" fill="white"/>
<path d="M81.0716 32.6004H82.1029V40.9019H81.0716V39.8822C80.5611 40.6646 79.8146 41.0558 78.8307 41.0558C78.0009 41.0558 77.289 40.7595 76.7079 40.1541C76.1269 39.5487 75.8306 38.8021 75.8306 37.9363C75.8306 37.0705 76.1269 36.3356 76.7079 35.7301C77.289 35.1247 78.0009 34.8169 78.8307 34.8169C79.8146 34.8169 80.5624 35.2081 81.0716 35.9905V32.5991V32.6004ZM80.4662 39.455C80.8689 39.0394 81.0716 38.5418 81.0716 37.9376C81.0716 37.3335 80.8702 36.8345 80.4662 36.4318C80.0634 36.0162 79.5644 35.8148 78.9603 35.8148C78.3562 35.8148 77.8687 36.0162 77.466 36.4318C77.0632 36.8345 76.8618 37.3335 76.8618 37.9376C76.8618 38.5418 77.0632 39.0407 77.466 39.455C77.8687 39.8578 78.3677 40.0592 78.9603 40.0592C79.5529 40.0592 80.0634 39.8578 80.4662 39.455Z" fill="white"/>
<path d="M86.4549 41.0558C85.5891 41.0558 84.8426 40.7595 84.2372 40.1541C83.6317 39.5487 83.3354 38.8137 83.3354 37.9364C83.3354 37.059 83.6317 36.324 84.2372 35.7186C84.8426 35.1132 85.5891 34.8169 86.4549 34.8169C87.3207 34.8169 88.0672 35.1132 88.6727 35.7186C89.2768 36.324 89.5859 37.059 89.5859 37.9364C89.5859 38.8137 89.2781 39.5487 88.6727 40.1541C88.0685 40.7582 87.3207 41.0558 86.4549 41.0558ZM87.9492 39.4435C88.352 39.0407 88.5534 38.5418 88.5534 37.9376C88.5534 37.3335 88.352 36.8345 87.9492 36.4318C87.5465 36.029 87.0475 35.8264 86.4549 35.8264C85.8623 35.8264 85.3762 36.0277 84.9721 36.4318C84.5681 36.8358 84.368 37.3335 84.368 37.9376C84.368 38.5418 84.5694 39.0407 84.9721 39.4435C85.3749 39.8463 85.8739 40.0489 86.4549 40.0489C87.036 40.0489 87.5465 39.8476 87.9492 39.4435Z" fill="white"/>
<path d="M95.8338 37.4632C96.7586 37.6646 97.9926 38.0084 97.9797 39.2782C97.9797 39.8118 97.7668 40.2505 97.3512 40.5712C96.9356 40.8918 96.4149 41.0573 95.762 41.0573C94.6114 41.0573 93.7456 40.5122 93.4019 39.6694L94.2907 39.1589C94.4806 39.7284 95.0373 40.0837 95.7607 40.0837C96.4367 40.0837 96.9343 39.8349 96.9343 39.2769C96.9343 38.8139 96.4123 38.5535 95.7607 38.3996C94.8243 38.1508 93.6148 37.8429 93.6148 36.5846C93.6148 36.0754 93.8162 35.6482 94.2074 35.316C94.6101 34.9838 95.1091 34.8184 95.7132 34.8184C96.674 34.8184 97.4679 35.2814 97.8476 36.0523L96.9818 36.5384C96.7689 36.0279 96.3418 35.7791 95.7132 35.7791C95.1322 35.7791 94.6576 36.0638 94.6576 36.5731C94.6576 37.0361 95.1796 37.2849 95.8312 37.462L95.8338 37.4632Z" fill="white"/>
<path d="M103.234 34.9722H104.265V40.902H103.234V40.0477C102.818 40.7237 102.178 41.0559 101.312 41.0559C99.9243 41.0559 99.011 40.1195 99.011 38.6124V34.9722H100.042V38.5534C100.042 39.5141 100.6 40.0708 101.512 40.0708C102.543 40.0708 103.232 39.4423 103.232 38.1147V34.9722H103.234Z" fill="white"/>
<path d="M110.74 34.9721H111.771V40.9019H110.74V39.8822C110.231 40.6646 109.483 41.0558 108.499 41.0558C107.669 41.0558 106.957 40.7595 106.376 40.1541C105.795 39.5487 105.499 38.8022 105.499 37.9364C105.499 37.0706 105.795 36.3356 106.376 35.7302C106.957 35.1247 107.669 34.8169 108.499 34.8169C109.483 34.8169 110.231 35.2081 110.74 35.9905V34.9708V34.9721ZM110.136 39.4551C110.538 39.0395 110.74 38.5418 110.74 37.9376C110.74 37.3335 110.538 36.8345 110.136 36.4318C109.733 36.0162 109.234 35.8148 108.63 35.8148C108.026 35.8148 107.538 36.0162 107.135 36.4318C106.733 36.8345 106.531 37.3335 106.531 37.9376C106.531 38.5418 106.733 39.0407 107.135 39.4551C107.538 39.8578 108.037 40.0592 108.63 40.0592C109.222 40.0592 109.733 39.8578 110.136 39.4551Z" fill="white"/>
<path d="M120.452 34.9722H121.567L119.195 40.902H117.986L115.614 34.9722H116.729L118.59 39.7989L120.451 34.9722H120.452Z" fill="white"/>
<path d="M122.266 33.2057C122.266 32.826 122.574 32.5054 122.966 32.5054C123.359 32.5054 123.654 32.826 123.654 33.2057C123.654 33.5854 123.346 33.8932 122.966 33.8932C122.587 33.8932 122.266 33.5854 122.266 33.2057ZM122.444 40.9018V34.972H123.475V40.9018H122.444Z" fill="white"/>
<path d="M129.962 32.6004H130.993V40.9019H129.962V39.8822C129.453 40.6646 128.705 41.0558 127.721 41.0558C126.891 41.0558 126.179 40.7595 125.598 40.1541C125.017 39.5487 124.721 38.8021 124.721 37.9363C124.721 37.0705 125.017 36.3356 125.598 35.7301C126.179 35.1247 126.891 34.8169 127.721 34.8169C128.705 34.8169 129.453 35.2081 129.962 35.9905V32.5991V32.6004ZM129.358 39.455C129.761 39.0394 129.962 38.5418 129.962 37.9376C129.962 37.3335 129.761 36.8345 129.358 36.4318C128.955 36.0162 128.456 35.8148 127.852 35.8148C127.248 35.8148 126.76 36.0162 126.358 36.4318C125.955 36.8345 125.754 37.3335 125.754 37.9376C125.754 38.5418 125.955 39.0407 126.358 39.455C126.76 39.8578 127.259 40.0592 127.852 40.0592C128.445 40.0592 128.955 39.8578 129.358 39.455Z" fill="white"/>
<path d="M137.468 34.9721H138.499V40.9019H137.468V39.8822C136.958 40.6646 136.211 41.0558 135.227 41.0558C134.397 41.0558 133.685 40.7595 133.104 40.1541C132.523 39.5487 132.227 38.8022 132.227 37.9364C132.227 37.0706 132.523 36.3356 133.104 35.7302C133.685 35.1247 134.397 34.8169 135.227 34.8169C136.211 34.8169 136.959 35.2081 137.468 35.9905V34.9708V34.9721ZM136.864 39.4551C137.267 39.0395 137.469 38.5418 137.469 37.9376C137.469 37.3335 137.268 36.8345 136.864 36.4318C136.461 36.0162 135.962 35.8148 135.358 35.8148C134.754 35.8148 134.267 36.0162 133.864 36.4318C133.461 36.8345 133.26 37.3335 133.26 37.9376C133.26 38.5418 133.461 39.0407 133.864 39.4551C134.267 39.8578 134.765 40.0592 135.358 40.0592C135.951 40.0592 136.461 39.8578 136.864 39.4551Z" fill="white"/>
<path d="M117.845 5.07791C114.73 3.80678 111.127 4.4789 108.663 6.79029L108.602 6.84801L108.541 6.79029C106.103 4.44299 102.433 3.7978 99.1907 5.14718C99.0253 5.21644 98.8637 5.28956 98.7046 5.3678C98.4494 4.77777 97.8645 4.36475 97.1821 4.36475H95.2568C94.3397 4.36475 93.5957 5.1087 93.5957 6.02581V25.9009H93.8599C96.5702 25.9009 98.8047 23.696 98.8393 20.9857V20.8625C98.8739 18.3292 98.9073 15.7087 98.947 13.1306C98.9624 12.1506 99.3613 11.2437 100.069 10.578C100.786 9.90463 101.728 9.55702 102.722 9.60448C104.663 9.69298 105.856 11.027 105.838 13.0844C105.816 15.5676 105.836 25.9214 105.836 25.9214H106.326C108.998 25.9214 111.036 23.7486 111.072 21.0767C111.111 18.2613 111.144 15.7228 111.172 13.1767C111.182 12.1891 111.417 11.4503 111.911 10.8512C112.853 9.70966 114.315 9.30818 115.728 9.80458C117.179 10.3151 118.072 11.5349 118.059 12.992C118.036 15.6164 118.052 25.8958 118.052 25.8958H118.317C121.027 25.8958 123.188 23.6908 123.224 20.9805L123.24 13.1126C123.286 9.53393 121.218 6.45551 117.845 5.07791Z" fill="white"/>
<path d="M21.7338 20.6468C21.2848 19.949 20.5858 19.4744 19.7649 19.3128C18.9517 19.1525 18.1166 19.3128 17.4112 19.7682C16.3311 20.4634 15.0536 20.8892 13.7145 20.9983C11.5019 21.1804 9.5522 20.5699 7.92192 19.1871C6.2942 17.7582 5.413 15.965 5.22829 13.705C5.04359 11.4449 5.61823 9.53499 6.98428 7.86879C8.3747 6.23081 10.2012 5.30857 12.4138 5.12643C14.4854 4.95712 16.3337 5.4689 17.7562 6.6092C18.8773 7.50836 20.4934 7.5571 21.685 6.72849L23.5462 5.43427L23.4846 5.33807C21.1463 1.68757 16.7634 -0.340337 12.0483 0.0457481C8.3375 0.349742 5.29499 1.87228 3.00413 4.57231C0.744058 7.23515 -0.248733 10.4508 0.0526956 14.1283C0.350277 17.7557 1.85357 20.7674 4.52154 23.0775C6.90988 25.1003 9.72536 26.1213 12.9077 26.1226C13.3258 26.1226 13.7491 26.1046 14.1801 26.07C17.0379 25.8352 19.7482 24.686 21.8107 22.8312C22.3135 22.3797 22.3982 21.6178 22.0096 21.0585C21.9146 20.9226 21.8223 20.7841 21.7351 20.6481L21.7338 20.6468Z" fill="white"/>
<path d="M64.702 4.48291C58.7375 4.48291 53.8121 9.26858 53.7249 15.1522C53.6825 17.9959 54.7446 20.669 56.7173 22.6764C58.7324 24.7287 61.4658 25.8638 64.4172 25.8728H64.4544C70.5818 25.8728 75.4367 21.1744 75.5085 15.1766C75.5419 12.3508 74.4709 9.69058 72.4917 7.68832C70.4497 5.62193 67.6842 4.48419 64.7033 4.48291H64.702ZM64.4878 20.9563C62.9948 20.9563 61.5979 20.3804 60.5551 19.3363C59.4815 18.2601 58.8979 16.8107 58.9081 15.251C58.9312 11.9955 61.462 9.43276 64.6674 9.41737H64.6802C66.204 9.41737 67.6214 9.99714 68.6693 11.0502C69.7429 12.1289 70.3265 13.5886 70.3099 15.1586C70.2778 18.3923 67.733 20.9384 64.4865 20.955L64.4878 20.9563Z" fill="white"/>
<path d="M33.9598 4.46076C28.0134 4.46076 23.1046 9.23231 23.0173 15.0967C22.975 17.9327 24.0345 20.5955 26.0008 22.5965C28.0095 24.6424 30.7352 25.7737 33.6777 25.7827H33.7136C39.8217 25.7827 44.6612 21.0984 44.733 15.1198C44.7664 12.303 43.6992 9.65175 41.7252 7.65462C39.6896 5.59464 36.9331 4.45947 33.9611 4.45947L33.9598 4.46076ZM33.7816 20.8226C32.2795 20.8149 30.8891 20.2467 29.8681 19.2231C28.8099 18.1623 28.2327 16.7308 28.2442 15.1929C28.2673 11.9811 30.7634 9.45293 33.956 9.43754C35.449 9.43754 36.8407 10.0096 37.8746 11.0486C38.9341 12.1132 39.5087 13.5524 39.4933 15.1018C39.4612 18.2919 36.951 20.8033 33.7828 20.82L33.7816 20.8226Z" fill="white"/>
<path d="M91.6996 6.05633C91.706 5.54839 91.4803 5.07637 91.0788 4.76083C90.8017 4.54149 90.4298 4.41964 90.0321 4.41835H89.9859C89.3613 4.41451 88.7982 4.41322 88.2325 4.42349C86.2239 4.46325 84.2729 5.04302 82.5913 6.09738L82.4938 6.15895L82.5028 6.04351C82.5144 5.90626 82.5156 5.86265 82.5169 5.84982V5.84597C82.4259 5.03404 81.7422 4.42092 80.9238 4.42092H78.9985C78.1148 4.42092 77.3965 5.13922 77.3965 6.02427V25.8429H78.6022C80.7584 25.8429 82.5208 24.0895 82.531 21.9346C82.531 21.8897 82.5888 17.5042 82.6221 15.5212C82.6298 15.0646 82.6465 14.5361 82.7427 14.0577C83.3058 11.2948 85.671 9.33485 88.4968 9.29381C89.0291 9.28611 89.5652 9.28868 90.0398 9.28996C90.9313 9.28996 91.6945 8.54986 91.706 7.67379L91.6996 6.05761V6.05633Z" fill="white"/>
<path d="M50.1654 0.0766602H48.3145C47.4089 0.0766602 46.6624 0.816764 46.6508 1.7249L46.6418 25.8867H46.9061C49.6112 25.8867 51.7841 23.6741 51.7956 20.9715L51.811 1.79673C51.8162 1.39397 51.6982 1.0143 51.4775 0.725694C51.1607 0.312673 50.6836 0.0766602 50.1666 0.0766602H50.1654Z" fill="white"/>
<path d="M142.263 25.8625C144.94 25.8625 147.118 23.6845 147.118 21.0076V6.06184C147.118 5.17807 146.399 4.45849 145.516 4.45849H143.59C142.772 4.45849 142.088 5.07033 141.997 5.88226L141.987 5.97205L141.91 5.92587C140.213 4.91641 138.241 4.38281 136.207 4.38281C130.185 4.38281 125.213 9.21465 125.125 15.1547C125.081 18.0254 126.155 20.7228 128.146 22.7495C130.179 24.821 132.94 25.9664 135.92 25.9754H135.957C138.038 25.9754 140.058 25.429 141.798 24.3951L141.887 24.3425L141.874 25.8625H142.263ZM135.994 21.014C134.486 21.014 133.075 20.4329 132.02 19.376C130.937 18.2896 130.345 16.8248 130.357 15.2496C130.381 11.9621 132.935 9.37371 136.174 9.35831C137.727 9.35831 139.159 9.9445 140.217 11.0078C141.302 12.0981 141.891 13.5719 141.875 15.1586C141.843 18.4243 139.26 20.996 135.994 21.0127V21.014Z" fill="white"/>
<path d="M170.999 26.3408V6.06165C171 5.17789 170.282 4.45831 169.398 4.45831H167.473C166.654 4.45831 165.971 5.07014 165.881 5.88208L165.871 5.97187L165.794 5.92569C164.098 4.91622 162.125 4.38263 160.091 4.38135C154.069 4.38135 149.097 9.21319 149.009 15.1533C148.966 18.0239 150.039 20.7214 152.029 22.748C154.064 24.8195 156.824 25.9649 159.804 25.9739H159.841C161.921 25.9739 163.941 25.4275 165.682 24.3937L165.769 24.3411L165.756 31.1931C168.557 31.1623 171 28.9074 171 26.3382L170.999 26.3408ZM159.874 21.0151C158.366 21.0151 156.955 20.434 155.9 19.3771C154.817 18.2907 154.225 16.8259 154.237 15.2507C154.26 11.9632 156.815 9.37481 160.054 9.35941C161.607 9.35941 163.038 9.9456 164.097 11.0089C165.182 12.0992 165.771 13.573 165.754 15.1597C165.722 18.4254 163.139 20.9971 159.873 21.0138L159.874 21.0151Z" fill="white"/>
</svg>
